<?xml version="1.0" encoding="UTF-8"?>
<svg id="Layer_2" data-name="Layer 2" xmlns="http://www.w3.org/2000/svg" viewBox="0 0 1016.89 167.08">
  <defs>
    <style>
      .cls-1 {
        fill: #800020;
      }

      .cls-2 {
        fill: #800020;
      }

      .cls-3 {
        fill: none;
        stroke: #800020;
        stroke-miterlimit: 10;
      }
    </style>
  </defs>
  <g id="AB1_-_B_W" data-name="AB1 - B&amp;amp;W">
    <g id="Full_Logo" data-name="Full Logo">
      <path class="cls-2" d="M183.17,9.35h-18.01v80.06s-5.96,49.55,44.49,48.36c6.61-.16,23.88-.19,35.62-13.65,8.2-9.41,9.41-20.4,9.65-24.8-.2-29.99-.4-59.98-.6-89.97h-2.7c.22,30.17.44,60.34.66,90.51-.04,2.31-.51,16.27-12.09,26.54-10.96,9.71-23.93,9-27.11,8.86-5.29-.24-12.8-1.48-18.97-6.64-11.01-9.21-11-25.27-11-37.63,0-27.01-.04-53.11.07-81.64Z"/>
      <path class="cls-2" d="M358.73,9.18h-4.32l-48.6,128.87h2.88l18.9-50.04h41.76l18.9,49.47h19.34L358.73,9.18ZM328.67,85.5l19.8-52.38,19.8,52.38h-39.6Z"/>
      <polygon class="cls-2" points="505.33 138.06 486.9 138.06 486.9 11.99 439.86 11.99 439.86 9.41 552.14 9.41 552.14 12.26 505.33 12.26 505.33 138.06"/>
      <polygon class="cls-2" points="672.8 138.06 654.32 138.06 654.32 11.67 607.16 11.67 607.16 9.08 719.73 9.08 719.73 11.93 672.8 11.93 672.8 138.06"/>
      <path class="cls-2" d="M806.58,70.08c44.15-6.22,30.74-38.85,30.74-38.85,0,0-4.61-11.71-17.98-17.46-13.37-5.75-43.77-2.92-43.77-2.92v127.21h3.5l.23-67.34h13.66l37.8,66.64h18.63l-42.8-67.27ZM779.06,68.54c.02-1.14.03-2.27.05-3.41l-.05-51.76s38.73-9.25,39.44,24.11c.02.93,1.44,22.31-11.82,29.09-2.96,1.52-5.86,1.9-7.9,1.97h-19.73Z"/>
      <circle class="cls-3" cx="953.64" cy="74.42" r="62.75"/>
      <path class="cls-2" d="M953.64,11.03s-10.08-.05-20.1,7.06c-21.87,15.52-20.06,48.07-19.55,56.41,1.42,23.07,12.85,55.76,35.54,61.58,4.02,1.03,7.56,1.01,9.99.81-5.76.43-24.71,1.12-42.46-11.59-25.51-18.25-26.77-48.55-26.86-52.17.32-4.4,2.78-31.66,26.2-49.21,14.98-11.23,30.79-12.67,37.24-12.89Z"/>
      <g id="Logo_Symbol_2" data-name="Logo Symbol 2">
        <path class="cls-1" d="M44.3,136.49s9.45,8.54,12.49,15.67c3.05,7.13,10.08,10.98,14.6,11.83,4.52.85,11.99,3.49,26.36,3.03l.03-2.28s-1.67-.06-3.76-.37c0,0-3.31-.55-6.26-1.81-6.35-2.71-11.55-10.15-11.91-10.68-2.02-2.04-4.7-4.39-8.14-6.62-4.37-2.83-8.5-4.51-11.7-5.53-2.4-.8-4.8-1.6-7.2-2.4-1.5-.29-3.01-.57-4.51-.86Z"/>
        <path class="cls-1" d="M.69,70.91c-.14,0-1.4,8.93-.11,18.86.67,5.14,4.08,31.45,25.74,43.56,9.44,5.28,19.23,6.12,26.7,5.65,3.52-.54,8.48-1.61,14.05-3.92,0,0,11.61-4.81,21.04-14.52,11.69-12.04,19.38-35.82,16.43-63.52,0,0-2.27-44.68-36.56-54.76,0,0-9.89-3.75-18.09-1.6v.76s36.3-7.39,38.44,60.9c2.15,68.29-25.63,72.43-25.63,72.43-4.23,1.24-10,2.26-16.66,1.41-20.93-2.66-32.16-21.42-33.86-24.37-2.39-4.14-4.65-9.14-4.65-9.14-2.02-4.63-3.18-8.44-3.74-10.39-1.42-4.97-1.79-7.55-1.83-7.77-1.42-7.8-1.17-13.6-1.28-13.6Z"/>
        <path class="cls-1" d="M37.2,22.92c-.65-5.76-7.03-4.45-7.03-4.45,0,0-1.55-6.33-7.03-4.45-5.48,1.88-1.39,17.77-1.39,17.77,0,0,16.11-3.13,15.46-8.88Z"/>
        <path class="cls-1" d="M30.63,47.28c5.76-.65,4.45-7.03,4.45-7.03,0,0,6.33-1.55,4.45-7.03-1.88-5.48-17.77-1.39-17.77-1.39,0,0,3.13,16.11,8.88,15.46Z"/>
        <path class="cls-1" d="M6.32,40.69c.65,5.76,7.03,4.45,7.03,4.45,0,0,1.55,6.33,7.03,4.45,5.48-1.88,1.39-17.77,1.39-17.77,0,0-16.11,3.13-15.46,8.88Z"/>
        <path class="cls-1" d="M12.76,16.37c-5.76.65-4.45,7.03-4.45,7.03,0,0-6.33,1.55-4.45,7.03,1.88,5.48,17.77,1.39,17.77,1.39,0,0-3.13-16.11-8.88-15.46Z"/>
        <circle id="clover_center" data-name="clover center" class="cls-1" cx="21.66" cy="31.84" r="1.74"/>
      </g>
    </g>
  </g>
</svg>